<?xml version="1.0" encoding="iso-8859-1"?>
<!-- Generator: Adobe Illustrator 19.1.1, SVG Export Plug-In . SVG Version: 6.00 Build 0)  -->
<svg version="1.1"  xmlns="http://www.w3.org/2000/svg" xmlns:xlink="http://www.w3.org/1999/xlink" x="0px" y="0px"
	 viewBox="0 0 48 48" style="enable-background:new 0 0 48 48;" xml:space="preserve">
<path style="fill:#B57E02;" d="M25,39h4c0,0-0.938-4.062-0.938-7.062C28.062,29.701,28,17,28,17L25,39z"/>
<path style="fill:#5EC08F;" d="M17,45l2-6h10l2,6c0,0,0,1-1,1s-11,0-12,0S17,45,17,45z"/>
<g>
	<circle style="fill:#DD9F05;" cx="24" cy="12" r="10"/>
	<path style="fill:#DD9F05;" d="M22,39c0,0,7-19,10-19c-2,5-3,15-6,19H22z"/>
</g>
<polygon style="fill:#398E5F;" points="29.666,41 29,39 19,39 18.334,41 "/>
<g>
	<path style="fill:#FFC107;" d="M16,14c0-5.523,4.478-10,10-10c2.251,0,4.32,0.754,5.992,2.008C30.168,3.578,27.271,2,24,2
		c-5.522,0-10,4.477-10,10c0,3.271,1.579,6.168,4.008,7.992C16.753,18.32,16,16.25,16,14z"/>
	<path style="fill:#FFC107;" d="M13,15c0,0,5,6,6,10s1,6,0,14h6c0,0-1.337-23.799-4.563-22.187C18.729,18.293,16,19,13,15z"/>
</g>
<g>
	<ellipse style="fill:#B57E02;" cx="26" cy="15.75" rx="3" ry="3.75"/>
	<path style="fill:#B57E02;" d="M27,20c2.457,0,4.156-3.392,5.103-6.011L33,11c0,0-3,6-6,7c-2.377,0.792-5.049-3.194-6.058-4.887
		C22.397,15.823,23.812,20,27,20z"/>
	<path style="fill:#B57E02;" d="M18.125,12.458c-0.002-0.003-0.003-0.006-0.005-0.009c0.242,0.991,0.661,3.315-0.654,3.544
		c-1.018,0.011-2.321-0.576-3.466-2.966l-0.992,1.983c0.018,0.022,0.215,0.261,0.531,0.661c2.733,3.177,5.196,2.555,6.804,1.217
		C19.364,14.722,18.419,12.987,18.125,12.458z"/>
</g>
<path style="fill:#FFE082;" d="M34,10c-0.553,0-1,0.447-1,1c0,0-2,9-6,9s-5.208-6.583-7.208-8.583l0,0C19.61,11.171,19.331,11,19,11
	c-0.553,0-1,0.447-1,1c0,0.091,0.029,0.173,0.052,0.256l-0.031,0.015c0,0,0.02,0.035,0.053,0.095
	c0.013,0.033,0.034,0.06,0.051,0.091C18.809,13.689,23,21.408,23,26c0,5-4,13-4,13h3c2-3,13-22,13-28C35,10.447,34.553,10,34,10z"/>
<ellipse style="fill:#FFE082;" cx="27" cy="15.5" rx="2" ry="2.5"/>
</svg>
